<?xml version="1.0" encoding="utf-8"?>
<!-- Generator: Adobe Illustrator 19.0.0, SVG Export Plug-In . SVG Version: 6.00 Build 0)  -->
<svg version="1.1" id="BG" xmlns="http://www.w3.org/2000/svg" xmlns:xlink="http://www.w3.org/1999/xlink" x="0px" y="0px"
	 viewBox="0 0 283.5 283.5" style="enable-background:new 0 0 283.5 283.5;" xml:space="preserve">
<style type="text/css">
	.st0{fill:none;}
	.st1{fill:#9E0000;}
	.st2{fill:#FF6E6E;}
	.st3{fill:#FFFFFF;}
	.st4{fill:#E30613;}
	.st5{fill:url(#Nouvelle_nuance_de_motif_2);stroke:url(#Nouvelle_nuance_de_motif_2);stroke-miterlimit:10;}
	.st6{fill:url(#Nouvelle_nuance_de_motif_1);}
	.st7{fill:url(#XMLID_6_);}
	.st8{fill:url(#XMLID_7_);}
	.st9{fill:url(#XMLID_45_);}
	.st10{fill:#FFFFFF;stroke:#FFFFFF;stroke-linecap:round;stroke-linejoin:round;stroke-miterlimit:10;}
	.st11{fill:none;stroke:#E30613;stroke-linecap:round;stroke-miterlimit:10;}
</style>
<pattern  y="-14.2" width="24.3" height="43.8" patternUnits="userSpaceOnUse" id="Nouvelle_nuance_de_motif_1" viewBox="0 -43.8 24.3 43.8" style="overflow:visible;">
	<g id="XMLID_16_">
		<polygon id="XMLID_18_" class="st0" points="0,0 24.3,0 24.3,-43.8 0,-43.8 		"/>
		<polygon id="XMLID_17_" class="st1" points="24.3,0 0,0 0,-43.8 24.3,-43.8 		"/>
	</g>
</pattern>
<pattern  y="-14.2" width="24.3" height="43.8" patternUnits="userSpaceOnUse" id="Nouvelle_nuance_de_motif_2" viewBox="0 -43.8 24.3 43.8" style="overflow:visible;">
	<g id="XMLID_19_">
		<polygon id="XMLID_21_" class="st0" points="0,0 24.3,0 24.3,-43.8 0,-43.8 		"/>
		<polygon id="XMLID_20_" class="st2" points="24.3,0 0,0 0,-43.8 24.3,-43.8 		"/>
	</g>
</pattern>
<g id="XMLID_1_">
	<path id="XMLID_10_" class="st3" d="M141.7,0L19,70.9v141.7l122.7,70.9l122.7-70.9V70.9L141.7,0z M258.3,209.1l-116.6,67.3
		L25.1,209.1V74.4L141.7,7.1l116.6,67.3V209.1z"/>
	<polygon id="XMLID_11_" class="st4" points="25.1,74.4 25.1,209.1 141.7,276.4 258.3,209.1 258.3,74.4 141.7,7.1 	"/>
</g>
<path id="XMLID_26_" class="st5" d="M248.1,65c-1.8,5.4-4.9,10.4-8.9,14.5c-1.1-0.9-2.5-1.4-4-1.6c-1,3-1.6,6-2,9.1
	c-0.2-1.3-1.3-2.4-2.6-2.6c-0.7-0.1-1.5,0.1-2.2,0.1c-3.8,0.4-7.8-1.4-10-4.6c-3,1.9-5.5,4.4-7.3,7.3c-4.2-1.1-5.4-8.2-9.7-7.9
	c-0.7,0-1.3,0.3-2,0.4c-1.7,0.3-3.4-0.3-4.9-1.2c-4.2-2.5-6.6-7-9.4-10.9s-6.5-8-11.3-8.5c-4.6,2.7-8.6,6.6-11.4,11.1
	c-5.8-2.4-11.5-5.2-17-8.4c-2.1,2.8-4.7,5.4-7.9,6.6c-3.3,1.2-7.4,0.7-9.7-1.9c-0.5-0.6-1-1.3-1.7-1.5c-0.6-0.2-1.3-0.1-2,0
	c-1.9,0.4-3.8,0.8-5.7,1.2c-0.6-4.5-5.1-7.2-9.2-9.2c-1.8-0.9-3.8-1.8-5.8-1.4c-2.9,0.5-4.7,3.3-7.5,4.3c-2.7,0.9-5.7-0.2-8.2-1.8
	c-2.4-1.5-4.7-3.5-7.4-4.4c-0.2,1.6-0.8,3.1-1.8,4.4c-4.3-3.9-9.9-6.5-15.7-7.2L23.3,73.3v66.8l237.3,7.7V72.1L248.1,65z"/>
<polyline id="XMLID_44_" class="st6" points="102,193.1 75.3,168.6 23.3,171.8 23.3,185.7 84.3,195.8 "/>
<pattern  id="XMLID_6_" xlink:href="#Nouvelle_nuance_de_motif_1" patternTransform="matrix(1 0 0 1 0 -1)">
</pattern>
<polyline id="XMLID_43_" class="st7" points="156.2,198 100.3,183.4 104.5,174.9 174.3,193.7 "/>
<pattern  id="XMLID_7_" xlink:href="#Nouvelle_nuance_de_motif_1" patternTransform="matrix(1 0 0 1 2.3054 -23.1538)">
</pattern>
<polyline id="XMLID_46_" class="st8" points="231.2,175.9 175.4,161.2 186.6,159.7 240.6,174.5 "/>
<pattern  id="XMLID_45_" xlink:href="#Nouvelle_nuance_de_motif_1" patternTransform="matrix(1.0118 -8.863214e-002 0.9305 0.2224 7357.1509 -6751.0962)">
</pattern>
<path id="XMLID_25_" class="st9" d="M207.2,179.6c-12.8,1.8-42.5-0.4-63.7-5.5c-21.2-5.1-20.2-9.8-2.7-10.5
	c9.3-0.4,23.4,0.5,37.2,2.7l-1.5,2.2c-6.3-1-15.1-1.9-21.5-1.5c-10.1,0.6-7.5,3,4.3,5.9c11.9,2.9,25.7,4.4,34.1,3.4
	c5.4-0.6,4-2.2,1.4-3.4l14.2,0.9C215.5,176.4,214,178.6,207.2,179.6z"/>
<g id="XMLID_13_">
	<path id="XMLID_14_" class="st3" d="M36.3,79.5l34.1,6.3l23.5,63.7L114.5,94l21.5,4L102,193.1l-17.7,2.7L36.3,79.5z"/>
	<path id="XMLID_28_" class="st3" d="M207.4,179.9c-14.8,2.3-29.6-13.5-29.5-36.4c0.1-22.9,15.1-38.1,29.8-35.3
		c7.9,1.5,15.6,8.3,18.8,19.5l-7.6,6.7c-1.6-5-5.3-10.4-11.1-11.1c-9-1-14.5,7.7-14.6,20.5c-0.1,12.8,5.4,21.8,14.4,21
		c5.8-0.5,9.4-6,11.2-10.6l7.6,7.1C223.1,171.9,215.3,178.7,207.4,179.9z"/>
	<path id="XMLID_30_" class="st3" d="M231.1,175.9l0.2-62.9l9.4,1.7l-0.2,59.7L231.1,175.9z"/>
</g>
<rect id="XMLID_5_" x="144.7" y="86.7" class="st3" width="24.3" height="108"/>
<path id="XMLID_41_" class="st3" d="M171.4,187.9c0.5-0.2,0.8-0.5,0.8-0.7c0-1.3-6.7-2.6-15-2.8c-8.3-0.2-15.3,0.6-15.5,2
	c0,0.3,0.3,0.6,0.8,0.8c-1.1,0.3-1.8,0.7-1.9,1.1c-0.2,1.4,7,2.8,16.1,3.1c9.1,0.3,16.5-0.7,16.6-2.1
	C173.3,188.7,172.6,188.3,171.4,187.9z"/>
<path id="XMLID_42_" class="st3" d="M173.2,91.5c0.1-1.4-7.2-2.4-16.3-2.2c-9.1,0.2-16.5,1.5-16.4,3c0,0.4,0.7,0.8,2,1.2
	c-0.5,0.2-0.7,0.5-0.7,0.8c0,1.3,6.8,2.2,15.2,2c8.3-0.2,15.2-1.4,15.3-2.7c0-0.3-0.3-0.6-0.8-0.8C172.5,92.3,173.2,91.9,173.2,91.5
	z"/>
<polyline id="XMLID_33_" class="st10" points="179.5,88.3 179.5,85.2 156.9,80.3 133.3,87 133.3,90 157,89.2 179.5,88.2 179.5,88.3 
	155.1,94.3 133.3,90.1 "/>
<polyline id="XMLID_35_" class="st10" points="133.3,190.9 133.3,193.9 156.9,199.5 179.5,195 179.5,192 155.5,187.6 133.3,190.9 
	133.3,190.9 156.9,196.5 179.5,192 "/>
<line id="XMLID_27_" class="st11" x1="167.2" y1="186.1" x2="167.2" y2="94.3"/>
<line id="XMLID_32_" class="st11" x1="164.2" y1="186.8" x2="164.2" y2="94.1"/>
<line id="XMLID_34_" class="st11" x1="160.2" y1="187.2" x2="160.2" y2="93.6"/>
<line id="XMLID_36_" class="st11" x1="155.2" y1="187.2" x2="155.2" y2="93.4"/>
<line id="XMLID_37_" class="st11" x1="151.2" y1="186.8" x2="151.2" y2="93.8"/>
<line id="XMLID_39_" class="st11" x1="148.2" y1="186.1" x2="148.2" y2="94.3"/>
<line id="XMLID_40_" class="st11" x1="146.2" y1="185.7" x2="146.2" y2="95.2"/>
<path id="XMLID_3_" class="st3" d="M141.7,0L19,70.9v141.7l122.7,70.9l122.7-70.9V70.9L141.7,0z M258.3,209.1l-116.6,67.3
	L25.1,209.1V74.4L141.7,7.1l116.6,67.3V209.1z"/>
</svg>
